<svg width="25" height="25" viewBox="0 0 25 25" fill="none" xmlns="http://www.w3.org/2000/svg">
<path d="M15.22 9.05172L10.93 13.3517L9.28 11.7017C9.19036 11.597 9.08004 11.512 8.95597 11.452C8.83191 11.392 8.69678 11.3582 8.55906 11.3529C8.42134 11.3476 8.28401 11.3708 8.15568 11.4211C8.02736 11.4713 7.91081 11.5476 7.81335 11.645C7.7159 11.7425 7.63964 11.8591 7.58937 11.9874C7.53909 12.1157 7.51589 12.253 7.52121 12.3908C7.52653 12.5285 7.56026 12.6636 7.62028 12.7877C7.6803 12.9117 7.76532 13.0221 7.87 13.1117L10.22 15.4717C10.3134 15.5644 10.4243 15.6377 10.5461 15.6875C10.6679 15.7372 10.7984 15.7625 10.93 15.7617C11.1923 15.7606 11.4437 15.6564 11.63 15.4717L16.63 10.4717C16.7237 10.3787 16.7981 10.2681 16.8489 10.1463C16.8997 10.0244 16.9258 9.89373 16.9258 9.76172C16.9258 9.62971 16.8997 9.499 16.8489 9.37714C16.7981 9.25528 16.7237 9.14468 16.63 9.05172C16.4426 8.86547 16.1892 8.76093 15.925 8.76093C15.6608 8.76093 15.4074 8.86547 15.22 9.05172ZM12.5 2.26172C10.5222 2.26172 8.58879 2.84821 6.9443 3.94702C5.29981 5.04584 4.01809 6.60762 3.26121 8.43489C2.50433 10.2621 2.3063 12.2728 2.69215 14.2126C3.078 16.1524 4.03041 17.9342 5.42894 19.3328C6.82746 20.7313 8.60929 21.6837 10.5491 22.0696C12.4889 22.4554 14.4996 22.2574 16.3268 21.5005C18.1541 20.7436 19.7159 19.4619 20.8147 17.8174C21.9135 16.1729 22.5 14.2395 22.5 12.2617C22.5 10.9485 22.2413 9.64814 21.7388 8.43489C21.2363 7.22163 20.4997 6.11924 19.5711 5.19065C18.6425 4.26207 17.5401 3.52547 16.3268 3.02292C15.1136 2.52038 13.8132 2.26172 12.5 2.26172ZM12.5 20.2617C10.9178 20.2617 9.37104 19.7925 8.05544 18.9135C6.73985 18.0344 5.71447 16.785 5.10897 15.3232C4.50347 13.8614 4.34504 12.2528 4.65372 10.701C4.9624 9.14915 5.72433 7.72369 6.84315 6.60487C7.96197 5.48605 9.38743 4.72412 10.9393 4.41544C12.4911 4.10676 14.0997 4.26518 15.5615 4.87068C17.0233 5.47619 18.2727 6.50156 19.1518 7.81716C20.0308 9.13275 20.5 10.6794 20.5 12.2617C20.5 14.3834 19.6572 16.4183 18.1569 17.9186C16.6566 19.4188 14.6217 20.2617 12.5 20.2617Z" fill="#1A1B1F"/>
</svg>
