<svg width="340" height="55" viewBox="0 0 340 55" fill="none" xmlns="http://www.w3.org/2000/svg">
<g clip-path="url(#clip0_76_412)">
<g filter="url(#filter0_d_76_412)">
<rect x="0.923645" y="0.688965" width="338.153" height="51.242" rx="5" fill="#F2EEE9"/>
</g>
<path d="M75.2796 34.0955C74.2956 34.0955 73.3536 33.9575 72.4536 33.6815C71.5536 33.3935 70.8396 33.0275 70.3116 32.5835L71.1216 30.7655C71.6256 31.1615 72.2496 31.4915 72.9936 31.7555C73.7376 32.0195 74.4996 32.1515 75.2796 32.1515C75.9396 32.1515 76.4736 32.0795 76.8816 31.9355C77.2896 31.7915 77.5896 31.5995 77.7816 31.3595C77.9736 31.1075 78.0696 30.8255 78.0696 30.5135C78.0696 30.1295 77.9316 29.8235 77.6556 29.5955C77.3796 29.3555 77.0196 29.1695 76.5756 29.0375C76.1436 28.8935 75.6576 28.7615 75.1176 28.6415C74.5896 28.5215 74.0556 28.3835 73.5156 28.2275C72.9876 28.0595 72.5016 27.8495 72.0576 27.5975C71.6256 27.3335 71.2716 26.9855 70.9956 26.5535C70.7196 26.1215 70.5816 25.5695 70.5816 24.8975C70.5816 24.2135 70.7616 23.5895 71.1216 23.0255C71.4936 22.4495 72.0516 21.9935 72.7956 21.6575C73.5516 21.3095 74.5056 21.1355 75.6576 21.1355C76.4136 21.1355 77.1636 21.2315 77.9076 21.4235C78.6516 21.6155 79.2996 21.8915 79.8516 22.2515L79.1136 24.0695C78.5496 23.7335 77.9676 23.4875 77.3676 23.3315C76.7676 23.1635 76.1916 23.0795 75.6396 23.0795C74.9916 23.0795 74.4636 23.1575 74.0556 23.3135C73.6596 23.4695 73.3656 23.6735 73.1736 23.9255C72.9936 24.1775 72.9036 24.4655 72.9036 24.7895C72.9036 25.1735 73.0356 25.4855 73.2996 25.7255C73.5756 25.9535 73.9296 26.1335 74.3616 26.2655C74.8056 26.3975 75.2976 26.5295 75.8376 26.6615C76.3776 26.7815 76.9116 26.9195 77.4396 27.0755C77.9796 27.2315 78.4656 27.4355 78.8976 27.6875C79.3416 27.9395 79.6956 28.2815 79.9596 28.7135C80.2356 29.1455 80.3736 29.6915 80.3736 30.3515C80.3736 31.0235 80.1876 31.6475 79.8156 32.2235C79.4556 32.7875 78.8976 33.2435 78.1416 33.5915C77.3856 33.9275 76.4316 34.0955 75.2796 34.0955ZM83.378 33.9155V24.3035H85.628V33.9155H83.378ZM84.512 22.7195C84.092 22.7195 83.744 22.5875 83.468 22.3235C83.204 22.0595 83.072 21.7415 83.072 21.3695C83.072 20.9855 83.204 20.6675 83.468 20.4155C83.744 20.1515 84.092 20.0195 84.512 20.0195C84.932 20.0195 85.274 20.1455 85.538 20.3975C85.814 20.6375 85.952 20.9435 85.952 21.3155C85.952 21.7115 85.82 22.0475 85.556 22.3235C85.292 22.5875 84.944 22.7195 84.512 22.7195ZM93.8371 37.5335C92.9491 37.5335 92.0791 37.4135 91.2271 37.1735C90.3871 36.9455 89.6971 36.6095 89.1571 36.1655L90.1651 34.4735C90.5851 34.8215 91.1131 35.0975 91.7491 35.3015C92.3971 35.5175 93.0511 35.6255 93.7111 35.6255C94.7671 35.6255 95.5411 35.3795 96.0331 34.8875C96.5251 34.4075 96.7711 33.6815 96.7711 32.7095V30.9995L96.9511 28.8215L96.8791 26.6435V24.3035H99.0211V32.4575C99.0211 34.1975 98.5771 35.4755 97.6891 36.2915C96.8011 37.1195 95.5171 37.5335 93.8371 37.5335ZM93.5491 33.4835C92.6371 33.4835 91.8091 33.2915 91.0651 32.9075C90.3331 32.5115 89.7511 31.9655 89.3191 31.2695C88.8991 30.5735 88.6891 29.7575 88.6891 28.8215C88.6891 27.8975 88.8991 27.0875 89.3191 26.3915C89.7511 25.6955 90.3331 25.1555 91.0651 24.7715C91.8091 24.3875 92.6371 24.1955 93.5491 24.1955C94.3651 24.1955 95.0971 24.3575 95.7451 24.6815C96.3931 25.0055 96.9091 25.5095 97.2931 26.1935C97.6891 26.8775 97.8871 27.7535 97.8871 28.8215C97.8871 29.8895 97.6891 30.7715 97.2931 31.4675C96.9091 32.1515 96.3931 32.6615 95.7451 32.9975C95.0971 33.3215 94.3651 33.4835 93.5491 33.4835ZM93.8911 31.5755C94.4551 31.5755 94.9591 31.4615 95.4031 31.2335C95.8471 30.9935 96.1891 30.6695 96.4291 30.2615C96.6811 29.8415 96.8071 29.3615 96.8071 28.8215C96.8071 28.2815 96.6811 27.8075 96.4291 27.3995C96.1891 26.9795 95.8471 26.6615 95.4031 26.4455C94.9591 26.2175 94.4551 26.1035 93.8911 26.1035C93.3271 26.1035 92.8171 26.2175 92.3611 26.4455C91.9171 26.6615 91.5691 26.9795 91.3171 27.3995C91.0771 27.8075 90.9571 28.2815 90.9571 28.8215C90.9571 29.3615 91.0771 29.8415 91.3171 30.2615C91.5691 30.6695 91.9171 30.9935 92.3611 31.2335C92.8171 31.4615 93.3271 31.5755 93.8911 31.5755ZM108.333 24.1955C109.101 24.1955 109.785 24.3455 110.385 24.6455C110.997 24.9455 111.477 25.4075 111.825 26.0315C112.173 26.6435 112.347 27.4355 112.347 28.4075V33.9155H110.097V28.6955C110.097 27.8435 109.893 27.2075 109.485 26.7875C109.089 26.3675 108.531 26.1575 107.811 26.1575C107.283 26.1575 106.815 26.2655 106.407 26.4815C105.999 26.6975 105.681 27.0215 105.453 27.4535C105.237 27.8735 105.129 28.4075 105.129 29.0555V33.9155H102.879V24.3035H105.021V26.8955L104.643 26.1035C104.979 25.4915 105.465 25.0235 106.101 24.6995C106.749 24.3635 107.493 24.1955 108.333 24.1955ZM126.044 34.0415C125.228 34.0415 124.508 33.8915 123.884 33.5915C123.26 33.2795 122.774 32.8115 122.426 32.1875C122.078 31.5515 121.904 30.7535 121.904 29.7935V24.3035H124.154V29.4875C124.154 30.3515 124.346 30.9995 124.73 31.4315C125.126 31.8515 125.684 32.0615 126.404 32.0615C126.932 32.0615 127.388 31.9535 127.772 31.7375C128.168 31.5215 128.474 31.1975 128.69 30.7655C128.918 30.3335 129.032 29.7995 129.032 29.1635V24.3035H131.282V33.9155H129.14V31.3235L129.518 32.1155C129.194 32.7395 128.72 33.2195 128.096 33.5555C127.472 33.8795 126.788 34.0415 126.044 34.0415ZM140.456 34.0415C139.676 34.0415 138.962 33.8615 138.314 33.5015C137.678 33.1415 137.168 32.6015 136.784 31.8815C136.412 31.1495 136.226 30.2255 136.226 29.1095C136.226 27.9815 136.406 27.0575 136.766 26.3375C137.138 25.6175 137.642 25.0835 138.278 24.7355C138.914 24.3755 139.64 24.1955 140.456 24.1955C141.404 24.1955 142.238 24.3995 142.958 24.8075C143.69 25.2155 144.266 25.7855 144.686 26.5175C145.118 27.2495 145.334 28.1135 145.334 29.1095C145.334 30.1055 145.118 30.9755 144.686 31.7195C144.266 32.4515 143.69 33.0215 142.958 33.4295C142.238 33.8375 141.404 34.0415 140.456 34.0415ZM135.128 37.4075V24.3035H137.27V26.5715L137.198 29.1275L137.378 31.6835V37.4075H135.128ZM140.204 32.1155C140.744 32.1155 141.224 31.9955 141.644 31.7555C142.076 31.5155 142.418 31.1675 142.67 30.7115C142.922 30.2555 143.048 29.7215 143.048 29.1095C143.048 28.4855 142.922 27.9515 142.67 27.5075C142.418 27.0515 142.076 26.7035 141.644 26.4635C141.224 26.2235 140.744 26.1035 140.204 26.1035C139.664 26.1035 139.178 26.2235 138.746 26.4635C138.314 26.7035 137.972 27.0515 137.72 27.5075C137.468 27.9515 137.342 28.4855 137.342 29.1095C137.342 29.7215 137.468 30.2555 137.72 30.7115C137.972 31.1675 138.314 31.5155 138.746 31.7555C139.178 31.9955 139.664 32.1155 140.204 32.1155ZM157.428 33.9155L153.252 21.3155H155.682L159.408 32.7095H158.202L162.072 21.3155H164.232L167.994 32.7095H166.824L170.64 21.3155H172.872L168.696 33.9155H166.212L162.774 23.6375H163.422L159.93 33.9155H157.428ZM175.551 33.9155V24.3035H177.801V33.9155H175.551ZM176.685 22.7195C176.265 22.7195 175.917 22.5875 175.641 22.3235C175.377 22.0595 175.245 21.7415 175.245 21.3695C175.245 20.9855 175.377 20.6675 175.641 20.4155C175.917 20.1515 176.265 20.0195 176.685 20.0195C177.105 20.0195 177.447 20.1455 177.711 20.3975C177.987 20.6375 178.125 20.9435 178.125 21.3155C178.125 21.7115 177.993 22.0475 177.729 22.3235C177.465 22.5875 177.117 22.7195 176.685 22.7195ZM185.272 34.0415C184.216 34.0415 183.4 33.7715 182.824 33.2315C182.248 32.6795 181.96 31.8695 181.96 30.8015V22.1795H184.21V30.7475C184.21 31.2035 184.324 31.5575 184.552 31.8095C184.792 32.0615 185.122 32.1875 185.542 32.1875C186.046 32.1875 186.466 32.0555 186.802 31.7915L187.432 33.3935C187.168 33.6095 186.844 33.7715 186.46 33.8795C186.076 33.9875 185.68 34.0415 185.272 34.0415ZM180.376 26.1755V24.3755H186.784V26.1755H180.376ZM195.637 24.1955C196.405 24.1955 197.089 24.3455 197.689 24.6455C198.301 24.9455 198.781 25.4075 199.129 26.0315C199.477 26.6435 199.651 27.4355 199.651 28.4075V33.9155H197.401V28.6955C197.401 27.8435 197.197 27.2075 196.789 26.7875C196.393 26.3675 195.835 26.1575 195.115 26.1575C194.587 26.1575 194.119 26.2655 193.711 26.4815C193.303 26.6975 192.985 27.0215 192.757 27.4535C192.541 27.8735 192.433 28.4075 192.433 29.0555V33.9155H190.183V20.5595H192.433V26.8955L191.947 26.1035C192.283 25.4915 192.769 25.0235 193.405 24.6995C194.053 24.3635 194.797 24.1955 195.637 24.1955ZM215.382 34.0955C214.398 34.0955 213.492 33.9395 212.664 33.6275C211.848 33.3035 211.134 32.8535 210.522 32.2775C209.91 31.6895 209.436 30.9995 209.1 30.2075C208.764 29.4155 208.596 28.5515 208.596 27.6155C208.596 26.6795 208.764 25.8155 209.1 25.0235C209.436 24.2315 209.91 23.5475 210.522 22.9715C211.146 22.3835 211.872 21.9335 212.7 21.6215C213.528 21.2975 214.434 21.1355 215.418 21.1355C216.486 21.1355 217.446 21.3095 218.298 21.6575C219.162 22.0055 219.888 22.5155 220.476 23.1875L219 24.6275C218.508 24.1355 217.974 23.7755 217.398 23.5475C216.834 23.3075 216.21 23.1875 215.526 23.1875C214.866 23.1875 214.254 23.2955 213.69 23.5115C213.126 23.7275 212.64 24.0335 212.232 24.4295C211.824 24.8255 211.506 25.2935 211.278 25.8335C211.062 26.3735 210.954 26.9675 210.954 27.6155C210.954 28.2515 211.062 28.8395 211.278 29.3795C211.506 29.9195 211.824 30.3935 212.232 30.8015C212.64 31.1975 213.12 31.5035 213.672 31.7195C214.224 31.9355 214.836 32.0435 215.508 32.0435C216.132 32.0435 216.732 31.9475 217.308 31.7555C217.896 31.5515 218.454 31.2155 218.982 30.7475L220.314 32.4935C219.654 33.0215 218.886 33.4235 218.01 33.6995C217.146 33.9635 216.27 34.0955 215.382 34.0955ZM218.1 32.1875V27.4715H220.314V32.4935L218.1 32.1875ZM228.404 34.0415C227.42 34.0415 226.544 33.8315 225.776 33.4115C225.008 32.9795 224.402 32.3915 223.958 31.6475C223.514 30.9035 223.292 30.0575 223.292 29.1095C223.292 28.1495 223.514 27.3035 223.958 26.5715C224.402 25.8275 225.008 25.2455 225.776 24.8255C226.544 24.4055 227.42 24.1955 228.404 24.1955C229.4 24.1955 230.282 24.4055 231.05 24.8255C231.83 25.2455 232.436 25.8215 232.868 26.5535C233.312 27.2855 233.534 28.1375 233.534 29.1095C233.534 30.0575 233.312 30.9035 232.868 31.6475C232.436 32.3915 231.83 32.9795 231.05 33.4115C230.282 33.8315 229.4 34.0415 228.404 34.0415ZM228.404 32.1155C228.956 32.1155 229.448 31.9955 229.88 31.7555C230.312 31.5155 230.648 31.1675 230.888 30.7115C231.14 30.2555 231.266 29.7215 231.266 29.1095C231.266 28.4855 231.14 27.9515 230.888 27.5075C230.648 27.0515 230.312 26.7035 229.88 26.4635C229.448 26.2235 228.962 26.1035 228.422 26.1035C227.87 26.1035 227.378 26.2235 226.946 26.4635C226.526 26.7035 226.19 27.0515 225.938 27.5075C225.686 27.9515 225.56 28.4855 225.56 29.1095C225.56 29.7215 225.686 30.2555 225.938 30.7115C226.19 31.1675 226.526 31.5155 226.946 31.7555C227.378 31.9955 227.864 32.1155 228.404 32.1155ZM240.905 34.0415C239.921 34.0415 239.045 33.8315 238.277 33.4115C237.509 32.9795 236.903 32.3915 236.459 31.6475C236.015 30.9035 235.793 30.0575 235.793 29.1095C235.793 28.1495 236.015 27.3035 236.459 26.5715C236.903 25.8275 237.509 25.2455 238.277 24.8255C239.045 24.4055 239.921 24.1955 240.905 24.1955C241.901 24.1955 242.783 24.4055 243.551 24.8255C244.331 25.2455 244.937 25.8215 245.369 26.5535C245.813 27.2855 246.035 28.1375 246.035 29.1095C246.035 30.0575 245.813 30.9035 245.369 31.6475C244.937 32.3915 244.331 32.9795 243.551 33.4115C242.783 33.8315 241.901 34.0415 240.905 34.0415ZM240.905 32.1155C241.457 32.1155 241.949 31.9955 242.381 31.7555C242.813 31.5155 243.149 31.1675 243.389 30.7115C243.641 30.2555 243.767 29.7215 243.767 29.1095C243.767 28.4855 243.641 27.9515 243.389 27.5075C243.149 27.0515 242.813 26.7035 242.381 26.4635C241.949 26.2235 241.463 26.1035 240.923 26.1035C240.371 26.1035 239.879 26.2235 239.447 26.4635C239.027 26.7035 238.691 27.0515 238.439 27.5075C238.187 27.9515 238.061 28.4855 238.061 29.1095C238.061 29.7215 238.187 30.2555 238.439 30.7115C238.691 31.1675 239.027 31.5155 239.447 31.7555C239.879 31.9955 240.365 32.1155 240.905 32.1155ZM253.443 37.5335C252.555 37.5335 251.685 37.4135 250.833 37.1735C249.993 36.9455 249.303 36.6095 248.763 36.1655L249.771 34.4735C250.191 34.8215 250.719 35.0975 251.355 35.3015C252.003 35.5175 252.657 35.6255 253.317 35.6255C254.373 35.6255 255.147 35.3795 255.639 34.8875C256.131 34.4075 256.377 33.6815 256.377 32.7095V30.9995L256.557 28.8215L256.485 26.6435V24.3035H258.627V32.4575C258.627 34.1975 258.183 35.4755 257.295 36.2915C256.407 37.1195 255.123 37.5335 253.443 37.5335ZM253.155 33.4835C252.243 33.4835 251.415 33.2915 250.671 32.9075C249.939 32.5115 249.357 31.9655 248.925 31.2695C248.505 30.5735 248.295 29.7575 248.295 28.8215C248.295 27.8975 248.505 27.0875 248.925 26.3915C249.357 25.6955 249.939 25.1555 250.671 24.7715C251.415 24.3875 252.243 24.1955 253.155 24.1955C253.971 24.1955 254.703 24.3575 255.351 24.6815C255.999 25.0055 256.515 25.5095 256.899 26.1935C257.295 26.8775 257.493 27.7535 257.493 28.8215C257.493 29.8895 257.295 30.7715 256.899 31.4675C256.515 32.1515 255.999 32.6615 255.351 32.9975C254.703 33.3215 253.971 33.4835 253.155 33.4835ZM253.497 31.5755C254.061 31.5755 254.565 31.4615 255.009 31.2335C255.453 30.9935 255.795 30.6695 256.035 30.2615C256.287 29.8415 256.413 29.3615 256.413 28.8215C256.413 28.2815 256.287 27.8075 256.035 27.3995C255.795 26.9795 255.453 26.6615 255.009 26.4455C254.565 26.2175 254.061 26.1035 253.497 26.1035C252.933 26.1035 252.423 26.2175 251.967 26.4455C251.523 26.6615 251.175 26.9795 250.923 27.3995C250.683 27.8075 250.563 28.2815 250.563 28.8215C250.563 29.3615 250.683 29.8415 250.923 30.2615C251.175 30.6695 251.523 30.9935 251.967 31.2335C252.423 31.4615 252.933 31.5755 253.497 31.5755ZM262.485 33.9155V20.5595H264.735V33.9155H262.485ZM273.106 34.0415C272.038 34.0415 271.102 33.8315 270.298 33.4115C269.506 32.9795 268.888 32.3915 268.444 31.6475C268.012 30.9035 267.796 30.0575 267.796 29.1095C267.796 28.1495 268.006 27.3035 268.426 26.5715C268.858 25.8275 269.446 25.2455 270.19 24.8255C270.946 24.4055 271.804 24.1955 272.764 24.1955C273.7 24.1955 274.534 24.3995 275.266 24.8075C275.998 25.2155 276.574 25.7915 276.994 26.5355C277.414 27.2795 277.624 28.1555 277.624 29.1635C277.624 29.2595 277.618 29.3675 277.606 29.4875C277.606 29.6075 277.6 29.7215 277.588 29.8295H269.578V28.3355H276.4L275.518 28.8035C275.53 28.2515 275.416 27.7655 275.176 27.3455C274.936 26.9255 274.606 26.5955 274.186 26.3555C273.778 26.1155 273.304 25.9955 272.764 25.9955C272.212 25.9955 271.726 26.1155 271.306 26.3555C270.898 26.5955 270.574 26.9315 270.334 27.3635C270.106 27.7835 269.992 28.2815 269.992 28.8575V29.2175C269.992 29.7935 270.124 30.3035 270.388 30.7475C270.652 31.1915 271.024 31.5335 271.504 31.7735C271.984 32.0135 272.536 32.1335 273.16 32.1335C273.7 32.1335 274.186 32.0495 274.618 31.8815C275.05 31.7135 275.434 31.4495 275.77 31.0895L276.976 32.4755C276.544 32.9795 275.998 33.3695 275.338 33.6455C274.69 33.9095 273.946 34.0415 273.106 34.0415Z" fill="#42382E"/>
<ellipse cx="32.6149" cy="26.3103" rx="23.7434" ry="21.3508" fill="#CECCB8"/>
<g clip-path="url(#clip1_76_412)">
<path d="M46.5467 26.5981C46.5467 25.7548 46.4635 24.9541 46.3208 24.1748H32.8903V28.9894H40.5802C40.2355 30.5694 39.2252 31.9038 37.7277 32.8112V36.0138H42.3154C45.0015 33.7827 46.5467 30.4947 46.5467 26.5981Z" fill="#4285F4"/>
<path d="M32.8903 39.1207C36.7412 39.1207 39.9621 37.9678 42.3154 36.0142L37.7276 32.8115C36.444 33.5802 34.8157 34.0499 32.8903 34.0499C29.1702 34.0499 26.0205 31.7974 24.8914 28.7549H20.161V32.0536C22.5024 36.2383 27.316 39.1207 32.8903 39.1207Z" fill="#34A853"/>
<path d="M24.8914 28.7544C24.5943 27.9858 24.4398 27.1638 24.4398 26.3098C24.4398 25.4557 24.6062 24.6337 24.8914 23.8651V20.5664H20.161C19.1864 22.2958 18.6278 24.2387 18.6278 26.3098C18.6278 28.3808 19.1864 30.3237 20.161 32.0532L24.8914 28.7544Z" fill="#FBBC05"/>
<path d="M32.8903 18.5703C34.994 18.5703 36.8719 19.2215 38.3576 20.4919L42.4224 16.8409C39.9621 14.7699 36.7412 13.4995 32.8903 13.4995C27.316 13.4995 22.5024 16.3819 20.161 20.5666L24.8914 23.8653C26.0205 20.8229 29.1701 18.5703 32.8903 18.5703Z" fill="#EA4335"/>
</g>
</g>
<defs>
<filter id="filter0_d_76_412" x="0.923645" y="0.688965" width="343.153" height="56.2422" filterUnits="userSpaceOnUse" color-interpolation-filters="sRGB">
<feFlood flood-opacity="0" result="BackgroundImageFix"/>
<feColorMatrix in="SourceAlpha" type="matrix" values="0 0 0 0 0 0 0 0 0 0 0 0 0 0 0 0 0 0 127 0" result="hardAlpha"/>
<feOffset dx="5" dy="5"/>
<feComposite in2="hardAlpha" operator="out"/>
<feColorMatrix type="matrix" values="0 0 0 0 0 0 0 0 0 0 0 0 0 0 0 0 0 0 0.25 0"/>
<feBlend mode="normal" in2="BackgroundImageFix" result="effect1_dropShadow_76_412"/>
<feBlend mode="normal" in="SourceGraphic" in2="effect1_dropShadow_76_412" result="shape"/>
</filter>
<clipPath id="clip0_76_412">
<rect width="338.153" height="53.8041" fill="white" transform="translate(0.923645 0.688965)"/>
</clipPath>
<clipPath id="clip1_76_412">
<rect width="28.525" height="25.621" fill="white" transform="translate(18.3247 13.4995)"/>
</clipPath>
</defs>
</svg>
