<svg width="362" height="35" viewBox="0 0 362 35" fill="none" xmlns="http://www.w3.org/2000/svg">
<g clip-path="url(#clip0_76_413)">
<path d="M263.49 16.4932V5.29316H265.09V15.1012H271.154V16.4932H263.49ZM276.289 16.5892C275.435 16.5892 274.678 16.4025 274.017 16.0292C273.355 15.6558 272.833 15.1438 272.449 14.4932C272.065 13.8318 271.873 13.0852 271.873 12.2532C271.873 11.4105 272.065 10.6638 272.449 10.0132C272.833 9.3625 273.355 8.85583 274.017 8.49316C274.678 8.11983 275.435 7.93316 276.289 7.93316C277.131 7.93316 277.883 8.11983 278.545 8.49316C279.217 8.85583 279.739 9.3625 280.113 10.0132C280.497 10.6532 280.689 11.3998 280.689 12.2532C280.689 13.0958 280.497 13.8425 280.113 14.4932C279.739 15.1438 279.217 15.6558 278.545 16.0292C277.883 16.4025 277.131 16.5892 276.289 16.5892ZM276.289 15.2452C276.833 15.2452 277.318 15.1225 277.745 14.8772C278.182 14.6318 278.523 14.2852 278.769 13.8372C279.014 13.3785 279.137 12.8505 279.137 12.2532C279.137 11.6452 279.014 11.1225 278.769 10.6852C278.523 10.2372 278.182 9.8905 277.745 9.64516C277.318 9.39983 276.833 9.27716 276.289 9.27716C275.745 9.27716 275.259 9.39983 274.833 9.64516C274.406 9.8905 274.065 10.2372 273.809 10.6852C273.553 11.1225 273.425 11.6452 273.425 12.2532C273.425 12.8505 273.553 13.3785 273.809 13.8372C274.065 14.2852 274.406 14.6318 274.833 14.8772C275.259 15.1225 275.745 15.2452 276.289 15.2452ZM286.525 19.6932C285.746 19.6932 284.989 19.5812 284.253 19.3572C283.527 19.1438 282.935 18.8345 282.477 18.4292L283.213 17.2452C283.607 17.5865 284.093 17.8532 284.669 18.0452C285.245 18.2478 285.847 18.3492 286.477 18.3492C287.479 18.3492 288.215 18.1145 288.685 17.6452C289.154 17.1758 289.389 16.4612 289.389 15.5012V13.7092L289.549 12.0292L289.469 10.3332V8.01316H290.925V15.3412C290.925 16.8345 290.551 17.9332 289.805 18.6372C289.058 19.3412 287.965 19.6932 286.525 19.6932ZM286.333 16.1412C285.511 16.1412 284.775 15.9705 284.125 15.6292C283.485 15.2772 282.973 14.7918 282.589 14.1732C282.215 13.5545 282.029 12.8398 282.029 12.0292C282.029 11.2078 282.215 10.4932 282.589 9.88516C282.973 9.2665 283.485 8.7865 284.125 8.44516C284.775 8.10383 285.511 7.93316 286.333 7.93316C287.058 7.93316 287.719 8.0825 288.317 8.38116C288.914 8.66916 289.389 9.11716 289.741 9.72516C290.103 10.3332 290.285 11.1012 290.285 12.0292C290.285 12.9465 290.103 13.7092 289.741 14.3172C289.389 14.9252 288.914 15.3838 288.317 15.6932C287.719 15.9918 287.058 16.1412 286.333 16.1412ZM286.509 14.7972C287.074 14.7972 287.575 14.6798 288.013 14.4452C288.45 14.2105 288.791 13.8852 289.037 13.4692C289.293 13.0532 289.421 12.5732 289.421 12.0292C289.421 11.4852 289.293 11.0052 289.037 10.5892C288.791 10.1732 288.45 9.85316 288.013 9.62916C287.575 9.3945 287.074 9.27716 286.509 9.27716C285.943 9.27716 285.437 9.3945 284.989 9.62916C284.551 9.85316 284.205 10.1732 283.949 10.5892C283.703 11.0052 283.581 11.4852 283.581 12.0292C283.581 12.5732 283.703 13.0532 283.949 13.4692C284.205 13.8852 284.551 14.2105 284.989 14.4452C285.437 14.6798 285.943 14.7972 286.509 14.7972ZM293.86 16.4932V8.01316H295.396V16.4932H293.86ZM294.628 6.38116C294.329 6.38116 294.078 6.28516 293.876 6.09316C293.684 5.90116 293.588 5.6665 293.588 5.38916C293.588 5.10116 293.684 4.86116 293.876 4.66916C294.078 4.47716 294.329 4.38116 294.628 4.38116C294.926 4.38116 295.172 4.47716 295.364 4.66916C295.566 4.8505 295.668 5.07983 295.668 5.35716C295.668 5.64516 295.572 5.8905 295.38 6.09316C295.188 6.28516 294.937 6.38116 294.628 6.38116ZM302.856 7.93316C303.55 7.93316 304.158 8.0665 304.68 8.33316C305.214 8.59983 305.63 9.00516 305.928 9.54916C306.227 10.0932 306.376 10.7812 306.376 11.6132V16.4932H304.84V11.7892C304.84 10.9678 304.638 10.3492 304.232 9.93316C303.838 9.51716 303.278 9.30916 302.552 9.30916C302.008 9.30916 301.534 9.41583 301.128 9.62916C300.723 9.8425 300.408 10.1572 300.184 10.5732C299.971 10.9892 299.864 11.5065 299.864 12.1252V16.4932H298.328V8.01316H299.8V10.3012L299.56 9.69316C299.838 9.1385 300.264 8.7065 300.84 8.39716C301.416 8.08783 302.088 7.93316 302.856 7.93316ZM313.74 16.4932V5.29316H315.052L322.46 14.4932H321.772V5.29316H323.372V16.4932H322.06L314.652 7.29316H315.34V16.4932H313.74ZM330.132 16.5892C329.279 16.5892 328.522 16.4025 327.86 16.0292C327.199 15.6558 326.676 15.1438 326.292 14.4932C325.908 13.8318 325.716 13.0852 325.716 12.2532C325.716 11.4105 325.908 10.6638 326.292 10.0132C326.676 9.3625 327.199 8.85583 327.86 8.49316C328.522 8.11983 329.279 7.93316 330.132 7.93316C330.975 7.93316 331.727 8.11983 332.388 8.49316C333.06 8.85583 333.583 9.3625 333.956 10.0132C334.34 10.6532 334.532 11.3998 334.532 12.2532C334.532 13.0958 334.34 13.8425 333.956 14.4932C333.583 15.1438 333.06 15.6558 332.388 16.0292C331.727 16.4025 330.975 16.5892 330.132 16.5892ZM330.132 15.2452C330.676 15.2452 331.162 15.1225 331.588 14.8772C332.026 14.6318 332.367 14.2852 332.612 13.8372C332.858 13.3785 332.98 12.8505 332.98 12.2532C332.98 11.6452 332.858 11.1225 332.612 10.6852C332.367 10.2372 332.026 9.8905 331.588 9.64516C331.162 9.39983 330.676 9.27716 330.132 9.27716C329.588 9.27716 329.103 9.39983 328.676 9.64516C328.25 9.8905 327.908 10.2372 327.652 10.6852C327.396 11.1225 327.268 11.6452 327.268 12.2532C327.268 12.8505 327.396 13.3785 327.652 13.8372C327.908 14.2852 328.25 14.6318 328.676 14.8772C329.103 15.1225 329.588 15.2452 330.132 15.2452ZM338.214 16.4932L335.062 8.01316H336.518L339.318 15.6932H338.63L341.542 8.01316H342.838L345.686 15.6932H345.014L347.878 8.01316H349.254L346.086 16.4932H344.614L341.942 9.48516H342.39L339.686 16.4932H338.214Z" fill="#4285F4"/>
<path d="M18.5178 16.4932L23.5898 5.29316H25.1738L30.2618 16.4932H28.5818L24.0538 6.18916H24.6938L20.1658 16.4932H18.5178ZM20.6778 13.6932L21.1098 12.4132H27.4138L27.8778 13.6932H20.6778ZM31.7085 16.4932V4.62116H33.2445V16.4932H31.7085ZM36.1773 16.4932V8.01316H37.6493V10.3172L37.5053 9.74116C37.74 9.1545 38.1346 8.7065 38.6893 8.39716C39.244 8.08783 39.9266 7.93316 40.7373 7.93316V9.42116C40.6733 9.4105 40.6093 9.40516 40.5453 9.40516C40.492 9.40516 40.4386 9.40516 40.3853 9.40516C39.564 9.40516 38.9133 9.6505 38.4333 10.1412C37.9533 10.6318 37.7133 11.3412 37.7133 12.2692V16.4932H36.1773ZM46.3283 16.5892C45.4216 16.5892 44.6216 16.4025 43.9283 16.0292C43.2456 15.6558 42.7123 15.1438 42.3283 14.4932C41.955 13.8425 41.7683 13.0958 41.7683 12.2532C41.7683 11.4105 41.9496 10.6638 42.3123 10.0132C42.6856 9.3625 43.1923 8.85583 43.8323 8.49316C44.483 8.11983 45.2136 7.93316 46.0243 7.93316C46.8456 7.93316 47.571 8.1145 48.2003 8.47716C48.8296 8.83983 49.3203 9.35183 49.6723 10.0132C50.035 10.6638 50.2163 11.4265 50.2163 12.3012C50.2163 12.3652 50.211 12.4398 50.2003 12.5252C50.2003 12.6105 50.195 12.6905 50.1843 12.7652H42.9683V11.6612H49.3843L48.7603 12.0452C48.771 11.5012 48.659 11.0158 48.4243 10.5892C48.1896 10.1625 47.8643 9.83183 47.4483 9.59716C47.043 9.35183 46.5683 9.22916 46.0243 9.22916C45.491 9.22916 45.0163 9.35183 44.6003 9.59716C44.1843 9.83183 43.859 10.1678 43.6243 10.6052C43.3896 11.0318 43.2723 11.5225 43.2723 12.0772V12.3332C43.2723 12.8985 43.4003 13.4052 43.6563 13.8532C43.923 14.2905 44.291 14.6318 44.7603 14.8772C45.2296 15.1225 45.7683 15.2452 46.3763 15.2452C46.8776 15.2452 47.331 15.1598 47.7363 14.9892C48.1523 14.8185 48.515 14.5625 48.8243 14.2212L49.6723 15.2132C49.2883 15.6612 48.8083 16.0025 48.2323 16.2372C47.667 16.4718 47.0323 16.5892 46.3283 16.5892ZM57.3788 16.4932V14.7012L57.2988 14.3652V11.3092C57.2988 10.6585 57.1068 10.1572 56.7228 9.80516C56.3495 9.4425 55.7841 9.26116 55.0268 9.26116C54.5255 9.26116 54.0348 9.3465 53.5548 9.51716C53.0748 9.67716 52.6695 9.89583 52.3388 10.1732L51.6988 9.02116C52.1361 8.66916 52.6588 8.4025 53.2668 8.22116C53.8855 8.02916 54.5308 7.93316 55.2028 7.93316C56.3655 7.93316 57.2615 8.21583 57.8908 8.78116C58.5201 9.3465 58.8348 10.2105 58.8348 11.3732V16.4932H57.3788ZM54.5948 16.5892C53.9655 16.5892 53.4108 16.4825 52.9308 16.2692C52.4615 16.0558 52.0988 15.7625 51.8428 15.3892C51.5868 15.0052 51.4588 14.5732 51.4588 14.0932C51.4588 13.6345 51.5655 13.2185 51.7788 12.8452C52.0028 12.4718 52.3601 12.1732 52.8508 11.9492C53.3521 11.7252 54.0241 11.6132 54.8668 11.6132H57.5548V12.7172H54.9308C54.1628 12.7172 53.6455 12.8452 53.3788 13.1012C53.1121 13.3572 52.9788 13.6665 52.9788 14.0292C52.9788 14.4452 53.1441 14.7812 53.4748 15.0372C53.8055 15.2825 54.2641 15.4052 54.8508 15.4052C55.4268 15.4052 55.9281 15.2772 56.3548 15.0212C56.7921 14.7652 57.1068 14.3918 57.2988 13.9012L57.6028 14.9572C57.4001 15.4585 57.0428 15.8585 56.5308 16.1572C56.0188 16.4452 55.3735 16.5892 54.5948 16.5892ZM65.1813 16.5892C64.36 16.5892 63.624 16.4078 62.9733 16.0452C62.3333 15.6825 61.8266 15.1758 61.4533 14.5252C61.08 13.8745 60.8933 13.1172 60.8933 12.2532C60.8933 11.3892 61.08 10.6372 61.4533 9.99716C61.8266 9.3465 62.3333 8.83983 62.9733 8.47716C63.624 8.1145 64.36 7.93316 65.1813 7.93316C65.896 7.93316 66.5413 8.09316 67.1173 8.41316C67.6933 8.73316 68.152 9.21316 68.4933 9.85316C68.8453 10.4932 69.0213 11.2932 69.0213 12.2532C69.0213 13.2132 68.8506 14.0132 68.5093 14.6532C68.1786 15.2932 67.7253 15.7785 67.1493 16.1092C66.5733 16.4292 65.9173 16.5892 65.1813 16.5892ZM65.3093 15.2452C65.8426 15.2452 66.3226 15.1225 66.7493 14.8772C67.1866 14.6318 67.528 14.2852 67.7733 13.8372C68.0293 13.3785 68.1573 12.8505 68.1573 12.2532C68.1573 11.6452 68.0293 11.1225 67.7733 10.6852C67.528 10.2372 67.1866 9.8905 66.7493 9.64516C66.3226 9.39983 65.8426 9.27716 65.3093 9.27716C64.7653 9.27716 64.28 9.39983 63.8533 9.64516C63.4266 9.8905 63.0853 10.2372 62.8293 10.6852C62.5733 11.1225 62.4453 11.6452 62.4453 12.2532C62.4453 12.8505 62.5733 13.3785 62.8293 13.8372C63.0853 14.2852 63.4266 14.6318 63.8533 14.8772C64.28 15.1225 64.7653 15.2452 65.3093 15.2452ZM68.2053 16.4932V14.2052L68.3013 12.2372L68.1413 10.2692V4.62116H69.6773V16.4932H68.2053ZM72.9515 19.6932C72.5462 19.6932 72.1515 19.6238 71.7675 19.4852C71.3835 19.3572 71.0529 19.1652 70.7755 18.9092L71.4315 17.7572C71.6449 17.9598 71.8795 18.1145 72.1355 18.2212C72.3915 18.3278 72.6635 18.3812 72.9515 18.3812C73.3249 18.3812 73.6342 18.2852 73.8795 18.0932C74.1249 17.9012 74.3542 17.5598 74.5675 17.0692L75.0955 15.9012L75.2555 15.7092L78.5835 8.01316H80.0875L75.9755 17.3412C75.7302 17.9385 75.4529 18.4078 75.1435 18.7492C74.8449 19.0905 74.5142 19.3305 74.1515 19.4692C73.7889 19.6185 73.3889 19.6932 72.9515 19.6932ZM74.9675 16.7652L71.0955 8.01316H72.6955L75.9915 15.5652L74.9675 16.7652ZM90.3459 7.93316C91.0393 7.93316 91.6473 8.0665 92.1699 8.33316C92.7033 8.59983 93.1193 9.00516 93.4179 9.54916C93.7166 10.0932 93.8659 10.7812 93.8659 11.6132V16.4932H92.3299V11.7892C92.3299 10.9678 92.1273 10.3492 91.7219 9.93316C91.3273 9.51716 90.7673 9.30916 90.0419 9.30916C89.4979 9.30916 89.0233 9.41583 88.6179 9.62916C88.2126 9.8425 87.8979 10.1572 87.6739 10.5732C87.4606 10.9892 87.3539 11.5065 87.3539 12.1252V16.4932H85.8179V4.62116H87.3539V10.3012L87.0499 9.69316C87.3273 9.1385 87.7539 8.7065 88.3299 8.39716C88.9059 8.08783 89.5779 7.93316 90.3459 7.93316ZM101.973 16.4932V14.7012L101.893 14.3652V11.3092C101.893 10.6585 101.701 10.1572 101.317 9.80516C100.943 9.4425 100.378 9.26116 99.6205 9.26116C99.1192 9.26116 98.6285 9.3465 98.1485 9.51716C97.6685 9.67716 97.2632 9.89583 96.9325 10.1732L96.2925 9.02116C96.7299 8.66916 97.2525 8.4025 97.8605 8.22116C98.4792 8.02916 99.1245 7.93316 99.7965 7.93316C100.959 7.93316 101.855 8.21583 102.485 8.78116C103.114 9.3465 103.429 10.2105 103.429 11.3732V16.4932H101.973ZM99.1885 16.5892C98.5592 16.5892 98.0045 16.4825 97.5245 16.2692C97.0552 16.0558 96.6925 15.7625 96.4365 15.3892C96.1805 15.0052 96.0525 14.5732 96.0525 14.0932C96.0525 13.6345 96.1592 13.2185 96.3725 12.8452C96.5965 12.4718 96.9539 12.1732 97.4445 11.9492C97.9459 11.7252 98.6179 11.6132 99.4605 11.6132H102.149V12.7172H99.5245C98.7565 12.7172 98.2392 12.8452 97.9725 13.1012C97.7059 13.3572 97.5725 13.6665 97.5725 14.0292C97.5725 14.4452 97.7379 14.7812 98.0685 15.0372C98.3992 15.2825 98.8579 15.4052 99.4445 15.4052C100.021 15.4052 100.522 15.2772 100.949 15.0212C101.386 14.7652 101.701 14.3918 101.893 13.9012L102.197 14.9572C101.994 15.4585 101.637 15.8585 101.125 16.1572C100.613 16.4452 99.9672 16.5892 99.1885 16.5892ZM108.339 16.4932L104.627 8.01316H106.227L109.523 15.6932H108.755L112.115 8.01316H113.619L109.907 16.4932H108.339ZM118.594 16.5892C117.687 16.5892 116.887 16.4025 116.194 16.0292C115.511 15.6558 114.978 15.1438 114.594 14.4932C114.221 13.8425 114.034 13.0958 114.034 12.2532C114.034 11.4105 114.215 10.6638 114.578 10.0132C114.951 9.3625 115.458 8.85583 116.098 8.49316C116.749 8.11983 117.479 7.93316 118.29 7.93316C119.111 7.93316 119.837 8.1145 120.466 8.47716C121.095 8.83983 121.586 9.35183 121.938 10.0132C122.301 10.6638 122.482 11.4265 122.482 12.3012C122.482 12.3652 122.477 12.4398 122.466 12.5252C122.466 12.6105 122.461 12.6905 122.45 12.7652H115.234V11.6612H121.65L121.026 12.0452C121.037 11.5012 120.925 11.0158 120.69 10.5892C120.455 10.1625 120.13 9.83183 119.714 9.59716C119.309 9.35183 118.834 9.22916 118.29 9.22916C117.757 9.22916 117.282 9.35183 116.866 9.59716C116.45 9.83183 116.125 10.1678 115.89 10.6052C115.655 11.0318 115.538 11.5225 115.538 12.0772V12.3332C115.538 12.8985 115.666 13.4052 115.922 13.8532C116.189 14.2905 116.557 14.6318 117.026 14.8772C117.495 15.1225 118.034 15.2452 118.642 15.2452C119.143 15.2452 119.597 15.1598 120.002 14.9892C120.418 14.8185 120.781 14.5625 121.09 14.2212L121.938 15.2132C121.554 15.6612 121.074 16.0025 120.498 16.2372C119.933 16.4718 119.298 16.5892 118.594 16.5892ZM134.176 16.4932V14.7012L134.096 14.3652V11.3092C134.096 10.6585 133.904 10.1572 133.52 9.80516C133.146 9.4425 132.581 9.26116 131.824 9.26116C131.322 9.26116 130.832 9.3465 130.352 9.51716C129.872 9.67716 129.466 9.89583 129.136 10.1732L128.496 9.02116C128.933 8.66916 129.456 8.4025 130.064 8.22116C130.682 8.02916 131.328 7.93316 132 7.93316C133.162 7.93316 134.058 8.21583 134.688 8.78116C135.317 9.3465 135.632 10.2105 135.632 11.3732V16.4932H134.176ZM131.392 16.5892C130.762 16.5892 130.208 16.4825 129.728 16.2692C129.258 16.0558 128.896 15.7625 128.64 15.3892C128.384 15.0052 128.256 14.5732 128.256 14.0932C128.256 13.6345 128.362 13.2185 128.576 12.8452C128.8 12.4718 129.157 12.1732 129.648 11.9492C130.149 11.7252 130.821 11.6132 131.664 11.6132H134.352V12.7172H131.728C130.96 12.7172 130.442 12.8452 130.176 13.1012C129.909 13.3572 129.776 13.6665 129.776 14.0292C129.776 14.4452 129.941 14.7812 130.272 15.0372C130.602 15.2825 131.061 15.4052 131.648 15.4052C132.224 15.4052 132.725 15.2772 133.152 15.0212C133.589 14.7652 133.904 14.3918 134.096 13.9012L134.4 14.9572C134.197 15.4585 133.84 15.8585 133.328 16.1572C132.816 16.4452 132.17 16.5892 131.392 16.5892ZM143.002 7.93316C143.696 7.93316 144.304 8.0665 144.826 8.33316C145.36 8.59983 145.776 9.00516 146.074 9.54916C146.373 10.0932 146.522 10.7812 146.522 11.6132V16.4932H144.986V11.7892C144.986 10.9678 144.784 10.3492 144.378 9.93316C143.984 9.51716 143.424 9.30916 142.698 9.30916C142.154 9.30916 141.68 9.41583 141.274 9.62916C140.869 9.8425 140.554 10.1572 140.33 10.5732C140.117 10.9892 140.01 11.5065 140.01 12.1252V16.4932H138.474V8.01316H139.946V10.3012L139.706 9.69316C139.984 9.1385 140.41 8.7065 140.986 8.39716C141.562 8.08783 142.234 7.93316 143.002 7.93316ZM158.926 16.4932V14.7012L158.846 14.3652V11.3092C158.846 10.6585 158.654 10.1572 158.27 9.80516C157.896 9.4425 157.331 9.26116 156.574 9.26116C156.072 9.26116 155.582 9.3465 155.102 9.51716C154.622 9.67716 154.216 9.89583 153.886 10.1732L153.246 9.02116C153.683 8.66916 154.206 8.4025 154.814 8.22116C155.432 8.02916 156.078 7.93316 156.75 7.93316C157.912 7.93316 158.808 8.21583 159.438 8.78116C160.067 9.3465 160.382 10.2105 160.382 11.3732V16.4932H158.926ZM156.142 16.5892C155.512 16.5892 154.958 16.4825 154.478 16.2692C154.008 16.0558 153.646 15.7625 153.39 15.3892C153.134 15.0052 153.006 14.5732 153.006 14.0932C153.006 13.6345 153.112 13.2185 153.326 12.8452C153.55 12.4718 153.907 12.1732 154.398 11.9492C154.899 11.7252 155.571 11.6132 156.414 11.6132H159.102V12.7172H156.478C155.71 12.7172 155.192 12.8452 154.926 13.1012C154.659 13.3572 154.526 13.6665 154.526 14.0292C154.526 14.4452 154.691 14.7812 155.022 15.0372C155.352 15.2825 155.811 15.4052 156.398 15.4052C156.974 15.4052 157.475 15.2772 157.902 15.0212C158.339 14.7652 158.654 14.3918 158.846 13.9012L159.15 14.9572C158.947 15.4585 158.59 15.8585 158.078 16.1572C157.566 16.4452 156.92 16.5892 156.142 16.5892ZM166.92 16.5892C166.056 16.5892 165.283 16.4025 164.6 16.0292C163.928 15.6558 163.4 15.1438 163.016 14.4932C162.632 13.8425 162.44 13.0958 162.44 12.2532C162.44 11.4105 162.632 10.6638 163.016 10.0132C163.4 9.3625 163.928 8.85583 164.6 8.49316C165.283 8.11983 166.056 7.93316 166.92 7.93316C167.688 7.93316 168.371 8.08783 168.968 8.39716C169.576 8.69583 170.046 9.14383 170.376 9.74116L169.208 10.4932C168.931 10.0772 168.59 9.77316 168.184 9.58116C167.79 9.3785 167.363 9.27716 166.904 9.27716C166.35 9.27716 165.854 9.39983 165.416 9.64516C164.979 9.8905 164.632 10.2372 164.376 10.6852C164.12 11.1225 163.992 11.6452 163.992 12.2532C163.992 12.8612 164.12 13.3892 164.376 13.8372C164.632 14.2852 164.979 14.6318 165.416 14.8772C165.854 15.1225 166.35 15.2452 166.904 15.2452C167.363 15.2452 167.79 15.1492 168.184 14.9572C168.59 14.7545 168.931 14.4452 169.208 14.0292L170.376 14.7652C170.046 15.3518 169.576 15.8052 168.968 16.1252C168.371 16.4345 167.688 16.5892 166.92 16.5892ZM175.936 16.5892C175.072 16.5892 174.298 16.4025 173.616 16.0292C172.944 15.6558 172.416 15.1438 172.032 14.4932C171.648 13.8425 171.456 13.0958 171.456 12.2532C171.456 11.4105 171.648 10.6638 172.032 10.0132C172.416 9.3625 172.944 8.85583 173.616 8.49316C174.298 8.11983 175.072 7.93316 175.936 7.93316C176.704 7.93316 177.386 8.08783 177.984 8.39716C178.592 8.69583 179.061 9.14383 179.392 9.74116L178.224 10.4932C177.946 10.0772 177.605 9.77316 177.2 9.58116C176.805 9.3785 176.378 9.27716 175.92 9.27716C175.365 9.27716 174.869 9.39983 174.432 9.64516C173.994 9.8905 173.648 10.2372 173.392 10.6852C173.136 11.1225 173.008 11.6452 173.008 12.2532C173.008 12.8612 173.136 13.3892 173.392 13.8372C173.648 14.2852 173.994 14.6318 174.432 14.8772C174.869 15.1225 175.365 15.2452 175.92 15.2452C176.378 15.2452 176.805 15.1492 177.2 14.9572C177.605 14.7545 177.946 14.4452 178.224 14.0292L179.392 14.7652C179.061 15.3518 178.592 15.8052 177.984 16.1252C177.386 16.4345 176.704 16.5892 175.936 16.5892ZM184.887 16.5892C184.034 16.5892 183.277 16.4025 182.615 16.0292C181.954 15.6558 181.431 15.1438 181.047 14.4932C180.663 13.8318 180.471 13.0852 180.471 12.2532C180.471 11.4105 180.663 10.6638 181.047 10.0132C181.431 9.3625 181.954 8.85583 182.615 8.49316C183.277 8.11983 184.034 7.93316 184.887 7.93316C185.73 7.93316 186.482 8.11983 187.143 8.49316C187.815 8.85583 188.338 9.3625 188.711 10.0132C189.095 10.6532 189.287 11.3998 189.287 12.2532C189.287 13.0958 189.095 13.8425 188.711 14.4932C188.338 15.1438 187.815 15.6558 187.143 16.0292C186.482 16.4025 185.73 16.5892 184.887 16.5892ZM184.887 15.2452C185.431 15.2452 185.917 15.1225 186.343 14.8772C186.781 14.6318 187.122 14.2852 187.367 13.8372C187.613 13.3785 187.735 12.8505 187.735 12.2532C187.735 11.6452 187.613 11.1225 187.367 10.6852C187.122 10.2372 186.781 9.8905 186.343 9.64516C185.917 9.39983 185.431 9.27716 184.887 9.27716C184.343 9.27716 183.858 9.39983 183.431 9.64516C183.005 9.8905 182.663 10.2372 182.407 10.6852C182.151 11.1225 182.023 11.6452 182.023 12.2532C182.023 12.8505 182.151 13.3785 182.407 13.8372C182.663 14.2852 183.005 14.6318 183.431 14.8772C183.858 15.1225 184.343 15.2452 184.887 15.2452ZM194.98 16.5892C194.254 16.5892 193.614 16.4558 193.06 16.1892C192.516 15.9225 192.089 15.5172 191.78 14.9732C191.481 14.4185 191.332 13.7252 191.332 12.8932V8.01316H192.868V12.7172C192.868 13.5492 193.065 14.1732 193.46 14.5892C193.865 15.0052 194.43 15.2132 195.156 15.2132C195.689 15.2132 196.153 15.1065 196.548 14.8932C196.942 14.6692 197.246 14.3492 197.46 13.9332C197.673 13.5065 197.78 12.9945 197.78 12.3972V8.01316H199.316V16.4932H197.86V14.2052L198.1 14.8132C197.822 15.3785 197.406 15.8158 196.852 16.1252C196.297 16.4345 195.673 16.5892 194.98 16.5892ZM206.768 7.93316C207.461 7.93316 208.069 8.0665 208.592 8.33316C209.125 8.59983 209.541 9.00516 209.84 9.54916C210.138 10.0932 210.288 10.7812 210.288 11.6132V16.4932H208.752V11.7892C208.752 10.9678 208.549 10.3492 208.144 9.93316C207.749 9.51716 207.189 9.30916 206.464 9.30916C205.92 9.30916 205.445 9.41583 205.04 9.62916C204.634 9.8425 204.32 10.1572 204.096 10.5732C203.882 10.9892 203.776 11.5065 203.776 12.1252V16.4932H202.24V8.01316H203.712V10.3012L203.472 9.69316C203.749 9.1385 204.176 8.7065 204.752 8.39716C205.328 8.08783 206 7.93316 206.768 7.93316ZM216.042 16.5892C215.189 16.5892 214.528 16.3598 214.058 15.9012C213.589 15.4425 213.354 14.7865 213.354 13.9332V6.15716H214.89V13.8692C214.89 14.3278 215.002 14.6798 215.226 14.9252C215.461 15.1705 215.792 15.2932 216.218 15.2932C216.698 15.2932 217.098 15.1598 217.418 14.8932L217.898 15.9972C217.664 16.1998 217.381 16.3492 217.05 16.4452C216.73 16.5412 216.394 16.5892 216.042 16.5892ZM211.914 9.27716V8.01316H217.322V9.27716H211.914ZM221.682 12.9572C221.682 12.5412 221.751 12.1785 221.89 11.8692C222.028 11.5598 222.199 11.2825 222.402 11.0372C222.615 10.7918 222.844 10.5678 223.09 10.3652C223.335 10.1518 223.564 9.94383 223.778 9.74116C223.991 9.52783 224.162 9.30383 224.29 9.06916C224.428 8.8345 224.498 8.5625 224.498 8.25316C224.498 7.74116 224.295 7.32516 223.89 7.00516C223.484 6.68516 222.924 6.52516 222.21 6.52516C221.57 6.52516 221.015 6.63183 220.546 6.84516C220.076 7.0585 219.676 7.37316 219.346 7.78916L218.178 6.95716C218.626 6.39183 219.196 5.9545 219.89 5.64516C220.583 5.32516 221.394 5.16516 222.322 5.16516C223.09 5.16516 223.756 5.2825 224.322 5.51716C224.887 5.74116 225.324 6.0665 225.634 6.49316C225.954 6.90916 226.114 7.41583 226.114 8.01316C226.114 8.46116 226.044 8.84516 225.906 9.16516C225.767 9.48516 225.591 9.76783 225.378 10.0132C225.164 10.2585 224.935 10.4878 224.69 10.7012C224.455 10.9145 224.231 11.1278 224.018 11.3412C223.804 11.5545 223.628 11.7892 223.49 12.0452C223.351 12.3012 223.282 12.6052 223.282 12.9572H221.682ZM222.498 16.5892C222.199 16.5892 221.948 16.4878 221.746 16.2852C221.554 16.0825 221.458 15.8425 221.458 15.5652C221.458 15.2665 221.554 15.0212 221.746 14.8292C221.948 14.6372 222.199 14.5412 222.498 14.5412C222.796 14.5412 223.042 14.6372 223.234 14.8292C223.426 15.0212 223.522 15.2665 223.522 15.5652C223.522 15.8425 223.426 16.0825 223.234 16.2852C223.042 16.4878 222.796 16.5892 222.498 16.5892Z" fill="#42382E"/>
</g>
<defs>
<clipPath id="clip0_76_413">
<rect width="361.985" height="34.1613" fill="white" transform="translate(0.00756836 0.493164)"/>
</clipPath>
</defs>
</svg>
