<svg width="340" height="55" viewBox="0 0 340 55" fill="none" xmlns="http://www.w3.org/2000/svg">
<g clip-path="url(#clip0_79_415)">
<g filter="url(#filter0_d_79_415)">
<rect x="0.923645" y="0.513184" width="338.153" height="51.242" rx="5" fill="#F2EEE9"/>
</g>
<path d="M71.3736 33.7397V21.1397H73.7136V31.7597H80.3016V33.7397H71.3736ZM87.0651 33.8657C86.0811 33.8657 85.2051 33.6557 84.4371 33.2357C83.6691 32.8037 83.0631 32.2157 82.6191 31.4717C82.1751 30.7277 81.9531 29.8817 81.9531 28.9337C81.9531 27.9737 82.1751 27.1277 82.6191 26.3957C83.0631 25.6517 83.6691 25.0697 84.4371 24.6497C85.2051 24.2297 86.0811 24.0197 87.0651 24.0197C88.0611 24.0197 88.9431 24.2297 89.7111 24.6497C90.4911 25.0697 91.0971 25.6457 91.5291 26.3777C91.9731 27.1097 92.1951 27.9617 92.1951 28.9337C92.1951 29.8817 91.9731 30.7277 91.5291 31.4717C91.0971 32.2157 90.4911 32.8037 89.7111 33.2357C88.9431 33.6557 88.0611 33.8657 87.0651 33.8657ZM87.0651 31.9397C87.6171 31.9397 88.1091 31.8197 88.5411 31.5797C88.9731 31.3397 89.3091 30.9917 89.5491 30.5357C89.8011 30.0797 89.9271 29.5457 89.9271 28.9337C89.9271 28.3097 89.8011 27.7757 89.5491 27.3317C89.3091 26.8757 88.9731 26.5277 88.5411 26.2877C88.1091 26.0477 87.6231 25.9277 87.0831 25.9277C86.5311 25.9277 86.0391 26.0477 85.6071 26.2877C85.1871 26.5277 84.8511 26.8757 84.5991 27.3317C84.3471 27.7757 84.2211 28.3097 84.2211 28.9337C84.2211 29.5457 84.3471 30.0797 84.5991 30.5357C84.8511 30.9917 85.1871 31.3397 85.6071 31.5797C86.0391 31.8197 86.5251 31.9397 87.0651 31.9397ZM99.6027 37.3577C98.7147 37.3577 97.8447 37.2377 96.9927 36.9977C96.1527 36.7697 95.4627 36.4337 94.9227 35.9897L95.9307 34.2977C96.3507 34.6457 96.8787 34.9217 97.5147 35.1257C98.1627 35.3417 98.8167 35.4497 99.4767 35.4497C100.533 35.4497 101.307 35.2037 101.799 34.7117C102.291 34.2317 102.537 33.5057 102.537 32.5337V30.8237L102.717 28.6457L102.645 26.4677V24.1277H104.787V32.2817C104.787 34.0217 104.343 35.2997 103.455 36.1157C102.567 36.9437 101.283 37.3577 99.6027 37.3577ZM99.3147 33.3077C98.4027 33.3077 97.5747 33.1157 96.8307 32.7317C96.0987 32.3357 95.5167 31.7897 95.0847 31.0937C94.6647 30.3977 94.4547 29.5817 94.4547 28.6457C94.4547 27.7217 94.6647 26.9117 95.0847 26.2157C95.5167 25.5197 96.0987 24.9797 96.8307 24.5957C97.5747 24.2117 98.4027 24.0197 99.3147 24.0197C100.131 24.0197 100.863 24.1817 101.511 24.5057C102.159 24.8297 102.675 25.3337 103.059 26.0177C103.455 26.7017 103.653 27.5777 103.653 28.6457C103.653 29.7137 103.455 30.5957 103.059 31.2917C102.675 31.9757 102.159 32.4857 101.511 32.8217C100.863 33.1457 100.131 33.3077 99.3147 33.3077ZM99.6567 31.3997C100.221 31.3997 100.725 31.2857 101.169 31.0577C101.613 30.8177 101.955 30.4937 102.195 30.0857C102.447 29.6657 102.573 29.1857 102.573 28.6457C102.573 28.1057 102.447 27.6317 102.195 27.2237C101.955 26.8037 101.613 26.4857 101.169 26.2697C100.725 26.0417 100.221 25.9277 99.6567 25.9277C99.0927 25.9277 98.5827 26.0417 98.1267 26.2697C97.6827 26.4857 97.3347 26.8037 97.0827 27.2237C96.8427 27.6317 96.7227 28.1057 96.7227 28.6457C96.7227 29.1857 96.8427 29.6657 97.0827 30.0857C97.3347 30.4937 97.6827 30.8177 98.1267 31.0577C98.5827 31.2857 99.0927 31.3997 99.6567 31.3997ZM114.519 33.7397V24.1277H116.769V33.7397H114.519ZM115.653 22.5437C115.233 22.5437 114.885 22.4117 114.609 22.1477C114.345 21.8837 114.213 21.5657 114.213 21.1937C114.213 20.8097 114.345 20.4917 114.609 20.2397C114.885 19.9757 115.233 19.8437 115.653 19.8437C116.073 19.8437 116.415 19.9697 116.679 20.2217C116.955 20.4617 117.093 20.7677 117.093 21.1397C117.093 21.5357 116.961 21.8717 116.697 22.1477C116.433 22.4117 116.085 22.5437 115.653 22.5437ZM126.076 24.0197C126.844 24.0197 127.528 24.1697 128.128 24.4697C128.74 24.7697 129.22 25.2317 129.568 25.8557C129.916 26.4677 130.09 27.2597 130.09 28.2317V33.7397H127.84V28.5197C127.84 27.6677 127.636 27.0317 127.228 26.6117C126.832 26.1917 126.274 25.9817 125.554 25.9817C125.026 25.9817 124.558 26.0897 124.15 26.3057C123.742 26.5217 123.424 26.8457 123.196 27.2777C122.98 27.6977 122.872 28.2317 122.872 28.8797V33.7397H120.622V24.1277H122.764V26.7197L122.386 25.9277C122.722 25.3157 123.208 24.8477 123.844 24.5237C124.492 24.1877 125.236 24.0197 126.076 24.0197ZM141.843 33.7397L138.315 24.1277H140.439L143.463 32.6057H142.455L145.623 24.1277H147.513L150.591 32.6057H149.601L152.715 24.1277H154.713L151.167 33.7397H149.007L146.199 26.2337H146.865L144.003 33.7397H141.843ZM157.16 33.7397V24.1277H159.41V33.7397H157.16ZM158.294 22.5437C157.874 22.5437 157.526 22.4117 157.25 22.1477C156.986 21.8837 156.854 21.5657 156.854 21.1937C156.854 20.8097 156.986 20.4917 157.25 20.2397C157.526 19.9757 157.874 19.8437 158.294 19.8437C158.714 19.8437 159.056 19.9697 159.32 20.2217C159.596 20.4617 159.734 20.7677 159.734 21.1397C159.734 21.5357 159.602 21.8717 159.338 22.1477C159.074 22.4117 158.726 22.5437 158.294 22.5437ZM166.881 33.8657C165.825 33.8657 165.009 33.5957 164.433 33.0557C163.857 32.5037 163.569 31.6937 163.569 30.6257V22.0037H165.819V30.5717C165.819 31.0277 165.933 31.3817 166.161 31.6337C166.401 31.8857 166.731 32.0117 167.151 32.0117C167.655 32.0117 168.075 31.8797 168.411 31.6157L169.041 33.2177C168.777 33.4337 168.453 33.5957 168.069 33.7037C167.685 33.8117 167.289 33.8657 166.881 33.8657ZM161.985 25.9997V24.1997H168.393V25.9997H161.985ZM177.246 24.0197C178.014 24.0197 178.698 24.1697 179.298 24.4697C179.91 24.7697 180.39 25.2317 180.738 25.8557C181.086 26.4677 181.26 27.2597 181.26 28.2317V33.7397H179.01V28.5197C179.01 27.6677 178.806 27.0317 178.398 26.6117C178.002 26.1917 177.444 25.9817 176.724 25.9817C176.196 25.9817 175.728 26.0897 175.32 26.3057C174.912 26.5217 174.594 26.8457 174.366 27.2777C174.15 27.6977 174.042 28.2317 174.042 28.8797V33.7397H171.792V20.3837H174.042V26.7197L173.556 25.9277C173.892 25.3157 174.378 24.8477 175.014 24.5237C175.662 24.1877 176.406 24.0197 177.246 24.0197ZM196.991 33.9197C196.007 33.9197 195.101 33.7637 194.273 33.4517C193.457 33.1277 192.743 32.6777 192.131 32.1017C191.519 31.5137 191.045 30.8237 190.709 30.0317C190.373 29.2397 190.205 28.3757 190.205 27.4397C190.205 26.5037 190.373 25.6397 190.709 24.8477C191.045 24.0557 191.519 23.3717 192.131 22.7957C192.755 22.2077 193.481 21.7577 194.309 21.4457C195.137 21.1217 196.043 20.9597 197.027 20.9597C198.095 20.9597 199.055 21.1337 199.907 21.4817C200.771 21.8297 201.497 22.3397 202.085 23.0117L200.609 24.4517C200.117 23.9597 199.583 23.5997 199.007 23.3717C198.443 23.1317 197.819 23.0117 197.135 23.0117C196.475 23.0117 195.863 23.1197 195.299 23.3357C194.735 23.5517 194.249 23.8577 193.841 24.2537C193.433 24.6497 193.115 25.1177 192.887 25.6577C192.671 26.1977 192.563 26.7917 192.563 27.4397C192.563 28.0757 192.671 28.6637 192.887 29.2037C193.115 29.7437 193.433 30.2177 193.841 30.6257C194.249 31.0217 194.729 31.3277 195.281 31.5437C195.833 31.7597 196.445 31.8677 197.117 31.8677C197.741 31.8677 198.341 31.7717 198.917 31.5797C199.505 31.3757 200.063 31.0397 200.591 30.5717L201.923 32.3177C201.263 32.8457 200.495 33.2477 199.619 33.5237C198.755 33.7877 197.879 33.9197 196.991 33.9197ZM199.709 32.0117V27.2957H201.923V32.3177L199.709 32.0117ZM210.014 33.8657C209.03 33.8657 208.154 33.6557 207.386 33.2357C206.618 32.8037 206.012 32.2157 205.568 31.4717C205.124 30.7277 204.902 29.8817 204.902 28.9337C204.902 27.9737 205.124 27.1277 205.568 26.3957C206.012 25.6517 206.618 25.0697 207.386 24.6497C208.154 24.2297 209.03 24.0197 210.014 24.0197C211.01 24.0197 211.892 24.2297 212.66 24.6497C213.44 25.0697 214.046 25.6457 214.478 26.3777C214.922 27.1097 215.144 27.9617 215.144 28.9337C215.144 29.8817 214.922 30.7277 214.478 31.4717C214.046 32.2157 213.44 32.8037 212.66 33.2357C211.892 33.6557 211.01 33.8657 210.014 33.8657ZM210.014 31.9397C210.566 31.9397 211.058 31.8197 211.49 31.5797C211.922 31.3397 212.258 30.9917 212.498 30.5357C212.75 30.0797 212.876 29.5457 212.876 28.9337C212.876 28.3097 212.75 27.7757 212.498 27.3317C212.258 26.8757 211.922 26.5277 211.49 26.2877C211.058 26.0477 210.572 25.9277 210.032 25.9277C209.48 25.9277 208.988 26.0477 208.556 26.2877C208.136 26.5277 207.8 26.8757 207.548 27.3317C207.296 27.7757 207.17 28.3097 207.17 28.9337C207.17 29.5457 207.296 30.0797 207.548 30.5357C207.8 30.9917 208.136 31.3397 208.556 31.5797C208.988 31.8197 209.474 31.9397 210.014 31.9397ZM222.515 33.8657C221.531 33.8657 220.655 33.6557 219.887 33.2357C219.119 32.8037 218.513 32.2157 218.069 31.4717C217.625 30.7277 217.403 29.8817 217.403 28.9337C217.403 27.9737 217.625 27.1277 218.069 26.3957C218.513 25.6517 219.119 25.0697 219.887 24.6497C220.655 24.2297 221.531 24.0197 222.515 24.0197C223.511 24.0197 224.393 24.2297 225.161 24.6497C225.941 25.0697 226.547 25.6457 226.979 26.3777C227.423 27.1097 227.645 27.9617 227.645 28.9337C227.645 29.8817 227.423 30.7277 226.979 31.4717C226.547 32.2157 225.941 32.8037 225.161 33.2357C224.393 33.6557 223.511 33.8657 222.515 33.8657ZM222.515 31.9397C223.067 31.9397 223.559 31.8197 223.991 31.5797C224.423 31.3397 224.759 30.9917 224.999 30.5357C225.251 30.0797 225.377 29.5457 225.377 28.9337C225.377 28.3097 225.251 27.7757 224.999 27.3317C224.759 26.8757 224.423 26.5277 223.991 26.2877C223.559 26.0477 223.073 25.9277 222.533 25.9277C221.981 25.9277 221.489 26.0477 221.057 26.2877C220.637 26.5277 220.301 26.8757 220.049 27.3317C219.797 27.7757 219.671 28.3097 219.671 28.9337C219.671 29.5457 219.797 30.0797 220.049 30.5357C220.301 30.9917 220.637 31.3397 221.057 31.5797C221.489 31.8197 221.975 31.9397 222.515 31.9397ZM235.053 37.3577C234.165 37.3577 233.295 37.2377 232.443 36.9977C231.603 36.7697 230.913 36.4337 230.373 35.9897L231.381 34.2977C231.801 34.6457 232.329 34.9217 232.965 35.1257C233.613 35.3417 234.267 35.4497 234.927 35.4497C235.983 35.4497 236.757 35.2037 237.249 34.7117C237.741 34.2317 237.987 33.5057 237.987 32.5337V30.8237L238.167 28.6457L238.095 26.4677V24.1277H240.237V32.2817C240.237 34.0217 239.793 35.2997 238.905 36.1157C238.017 36.9437 236.733 37.3577 235.053 37.3577ZM234.765 33.3077C233.853 33.3077 233.025 33.1157 232.281 32.7317C231.549 32.3357 230.967 31.7897 230.535 31.0937C230.115 30.3977 229.905 29.5817 229.905 28.6457C229.905 27.7217 230.115 26.9117 230.535 26.2157C230.967 25.5197 231.549 24.9797 232.281 24.5957C233.025 24.2117 233.853 24.0197 234.765 24.0197C235.581 24.0197 236.313 24.1817 236.961 24.5057C237.609 24.8297 238.125 25.3337 238.509 26.0177C238.905 26.7017 239.103 27.5777 239.103 28.6457C239.103 29.7137 238.905 30.5957 238.509 31.2917C238.125 31.9757 237.609 32.4857 236.961 32.8217C236.313 33.1457 235.581 33.3077 234.765 33.3077ZM235.107 31.3997C235.671 31.3997 236.175 31.2857 236.619 31.0577C237.063 30.8177 237.405 30.4937 237.645 30.0857C237.897 29.6657 238.023 29.1857 238.023 28.6457C238.023 28.1057 237.897 27.6317 237.645 27.2237C237.405 26.8037 237.063 26.4857 236.619 26.2697C236.175 26.0417 235.671 25.9277 235.107 25.9277C234.543 25.9277 234.033 26.0417 233.577 26.2697C233.133 26.4857 232.785 26.8037 232.533 27.2237C232.293 27.6317 232.173 28.1057 232.173 28.6457C232.173 29.1857 232.293 29.6657 232.533 30.0857C232.785 30.4937 233.133 30.8177 233.577 31.0577C234.033 31.2857 234.543 31.3997 235.107 31.3997ZM244.095 33.7397V20.3837H246.345V33.7397H244.095ZM254.716 33.8657C253.648 33.8657 252.712 33.6557 251.908 33.2357C251.116 32.8037 250.498 32.2157 250.054 31.4717C249.622 30.7277 249.406 29.8817 249.406 28.9337C249.406 27.9737 249.616 27.1277 250.036 26.3957C250.468 25.6517 251.056 25.0697 251.8 24.6497C252.556 24.2297 253.414 24.0197 254.374 24.0197C255.31 24.0197 256.144 24.2237 256.876 24.6317C257.608 25.0397 258.184 25.6157 258.604 26.3597C259.024 27.1037 259.234 27.9797 259.234 28.9877C259.234 29.0837 259.228 29.1917 259.216 29.3117C259.216 29.4317 259.21 29.5457 259.198 29.6537H251.188V28.1597H258.01L257.128 28.6277C257.14 28.0757 257.026 27.5897 256.786 27.1697C256.546 26.7497 256.216 26.4197 255.796 26.1797C255.388 25.9397 254.914 25.8197 254.374 25.8197C253.822 25.8197 253.336 25.9397 252.916 26.1797C252.508 26.4197 252.184 26.7557 251.944 27.1877C251.716 27.6077 251.602 28.1057 251.602 28.6817V29.0417C251.602 29.6177 251.734 30.1277 251.998 30.5717C252.262 31.0157 252.634 31.3577 253.114 31.5977C253.594 31.8377 254.146 31.9577 254.77 31.9577C255.31 31.9577 255.796 31.8737 256.228 31.7057C256.66 31.5377 257.044 31.2737 257.38 30.9137L258.586 32.2997C258.154 32.8037 257.608 33.1937 256.948 33.4697C256.3 33.7337 255.556 33.8657 254.716 33.8657Z" fill="#42382E"/>
<ellipse cx="32.6149" cy="26.1345" rx="23.7434" ry="21.3508" fill="#CECCB8"/>
<g clip-path="url(#clip1_79_415)">
<path d="M46.5467 26.4223C46.5467 25.579 46.4635 24.7783 46.3208 23.999H32.8903V28.8136H40.5802C40.2355 30.3936 39.2252 31.728 37.7277 32.6354V35.8381H42.3154C45.0015 33.6069 46.5467 30.3189 46.5467 26.4223Z" fill="#4285F4"/>
<path d="M32.8903 38.9449C36.7412 38.9449 39.9621 37.792 42.3154 35.8384L37.7276 32.6358C36.444 33.4044 34.8157 33.8741 32.8903 33.8741C29.1702 33.8741 26.0205 31.6216 24.8914 28.5791H20.161V31.8778C22.5024 36.0626 27.316 38.9449 32.8903 38.9449Z" fill="#34A853"/>
<path d="M24.8914 28.5787C24.5943 27.81 24.4398 26.988 24.4398 26.134C24.4398 25.28 24.6062 24.458 24.8914 23.6893V20.3906H20.161C19.1864 22.12 18.6278 24.063 18.6278 26.134C18.6278 28.205 19.1864 30.148 20.161 31.8774L24.8914 28.5787Z" fill="#FBBC05"/>
<path d="M32.8903 18.3946C34.994 18.3946 36.8719 19.0458 38.3576 20.3161L42.4224 16.6651C39.9621 14.5941 36.7412 13.3237 32.8903 13.3237C27.316 13.3237 22.5024 16.2061 20.161 20.3909L24.8914 23.6896C26.0205 20.6471 29.1701 18.3946 32.8903 18.3946Z" fill="#EA4335"/>
</g>
</g>
<defs>
<filter id="filter0_d_79_415" x="0.923645" y="0.513184" width="343.153" height="56.2422" filterUnits="userSpaceOnUse" color-interpolation-filters="sRGB">
<feFlood flood-opacity="0" result="BackgroundImageFix"/>
<feColorMatrix in="SourceAlpha" type="matrix" values="0 0 0 0 0 0 0 0 0 0 0 0 0 0 0 0 0 0 127 0" result="hardAlpha"/>
<feOffset dx="5" dy="5"/>
<feComposite in2="hardAlpha" operator="out"/>
<feColorMatrix type="matrix" values="0 0 0 0 0 0 0 0 0 0 0 0 0 0 0 0 0 0 0.25 0"/>
<feBlend mode="normal" in2="BackgroundImageFix" result="effect1_dropShadow_79_415"/>
<feBlend mode="normal" in="SourceGraphic" in2="effect1_dropShadow_79_415" result="shape"/>
</filter>
<clipPath id="clip0_79_415">
<rect width="338.153" height="53.8041" fill="white" transform="translate(0.923645 0.513184)"/>
</clipPath>
<clipPath id="clip1_79_415">
<rect width="28.525" height="25.621" fill="white" transform="translate(18.3247 13.3237)"/>
</clipPath>
</defs>
</svg>
