<svg width="120" height="121" viewBox="0 0 120 121" fill="none" xmlns="http://www.w3.org/2000/svg">
<g clip-path="url(#clip0_94_935)">
<circle cx="60" cy="60.2617" r="60" fill="#CECCB8"/>
<path d="M69.3538 28.9596L71.6141 28.1377V73.3432H69.3538L69.3538 28.9596Z" fill="#626780"/>
<path d="M60.5182 28.1377H69.7648V92.2473H60.5182V28.1377Z" fill="#9B9FB8"/>
<path d="M71.6141 28.1377H80.8607V92.2473H71.6141V28.1377Z" fill="#9B9FB8"/>
<path d="M36.0662 39.9528L60.5182 28.1377V92.2473H36.0662V39.9528Z" fill="#868CAA"/>
<circle cx="47.2763" cy="75.7064" r="16.5411" fill="white"/>
<circle cx="27.2651" cy="80.9113" r="11.3359" fill="white"/>
<rect x="26.8024" y="83.6873" width="20.3583" height="8.55973" fill="white"/>
<circle cx="87.5503" cy="75.7064" r="16.5411" fill="white"/>
<circle cx="67.5389" cy="80.9113" r="11.3359" fill="white"/>
<rect x="67.0763" y="83.6873" width="20.3583" height="8.55973" fill="white"/>
<rect x="48.1895" y="83.6873" width="20.3583" height="8.55973" fill="white"/>
<path d="M29.9438 84.261V73.9073H32.2463V84.261H29.9438ZM36.3525 84.261V73.9073H38.6696V84.261H36.3525ZM31.3224 79.9347V77.9403H37.1151V79.9347H31.3224ZM40.451 84.261V77.1337H42.6948V84.261H40.451ZM41.5802 76.1511C41.2283 76.1511 40.9349 76.0338 40.7003 75.7992C40.4754 75.5547 40.363 75.2614 40.363 74.9192C40.363 74.5673 40.4754 74.274 40.7003 74.0393C40.9349 73.8047 41.2283 73.6874 41.5802 73.6874C41.9322 73.6874 42.2206 73.8047 42.4455 74.0393C42.6703 74.274 42.7828 74.5673 42.7828 74.9192C42.7828 75.2614 42.6703 75.5547 42.4455 75.7992C42.2206 76.0338 41.9322 76.1511 41.5802 76.1511ZM47.2959 87.458C46.5137 87.458 45.8245 87.3211 45.2281 87.0474C44.6415 86.7834 44.1771 86.407 43.8349 85.9182L45.2134 84.5396C45.4676 84.8427 45.7511 85.0725 46.064 85.2289C46.3866 85.3853 46.7728 85.4635 47.2225 85.4635C47.7798 85.4635 48.2149 85.3267 48.5278 85.0529C48.8504 84.7792 49.0117 84.393 49.0117 83.8944V82.0759L49.393 80.5214L49.0557 78.9668V77.1337H51.2555V83.8357C51.2555 84.569 51.0844 85.2044 50.7422 85.7422C50.4 86.2799 49.9307 86.7003 49.3343 87.0034C48.738 87.3065 48.0585 87.458 47.2959 87.458ZM47.1932 84.041C46.5382 84.041 45.9564 83.8846 45.4481 83.5717C44.9397 83.2589 44.5388 82.8336 44.2455 82.2958C43.9522 81.7581 43.8056 81.1617 43.8056 80.5067C43.8056 79.8419 43.9522 79.2455 44.2455 78.7175C44.5388 78.1798 44.9397 77.7594 45.4481 77.4563C45.9564 77.1435 46.5382 76.987 47.1932 76.987C47.6821 76.987 48.1171 77.0799 48.4984 77.2657C48.8895 77.4417 49.2024 77.6959 49.437 78.0283C49.6814 78.3509 49.8183 78.7273 49.8476 79.1575V81.8706C49.8183 82.291 49.6814 82.6674 49.437 82.9998C49.2024 83.3224 48.8895 83.5766 48.4984 83.7624C48.1073 83.9481 47.6723 84.041 47.1932 84.041ZM47.6185 82.0465C47.9314 82.0465 48.2002 81.9781 48.4251 81.8412C48.6597 81.7044 48.8357 81.5235 48.953 81.2986C49.0801 81.064 49.1437 80.8 49.1437 80.5067C49.1437 80.2134 49.0801 79.9494 48.953 79.7148C48.8357 79.4801 48.6597 79.2944 48.4251 79.1575C48.2002 79.0206 47.9314 78.9522 47.6185 78.9522C47.3154 78.9522 47.0466 79.0206 46.8119 79.1575C46.5773 79.2944 46.3964 79.4801 46.2693 79.7148C46.1422 79.9494 46.0787 80.2134 46.0787 80.5067C46.0787 80.7804 46.1422 81.0395 46.2693 81.2839C46.3964 81.5186 46.5724 81.7044 46.7973 81.8412C47.0319 81.9781 47.3056 82.0465 47.6185 82.0465ZM57.5466 84.261V80.1987C57.5466 79.8272 57.4293 79.529 57.1947 79.3041C56.9698 79.0695 56.6814 78.9522 56.3294 78.9522C56.085 78.9522 55.8699 79.006 55.6841 79.1135C55.4984 79.2113 55.3517 79.3579 55.2442 79.5535C55.1366 79.7392 55.0829 79.9543 55.0829 80.1987L54.2176 79.7734C54.2176 79.2162 54.3349 78.7273 54.5696 78.3069C54.8042 77.8865 55.1318 77.5639 55.5522 77.339C55.9726 77.1044 56.4565 76.987 57.004 76.987C57.5613 76.987 58.0501 77.1044 58.4705 77.339C58.8909 77.5639 59.2136 77.8816 59.4384 78.2922C59.6731 78.6931 59.7904 79.1624 59.7904 79.7001V84.261H57.5466ZM52.8391 84.261V73.614H55.0829V84.261H52.8391ZM61.2315 84.261V73.614H63.4753V84.261H61.2315ZM68.0324 84.4076C67.3773 84.4076 66.7907 84.2463 66.2725 83.9237C65.7642 83.6011 65.3584 83.1611 65.0553 82.6038C64.762 82.0465 64.6154 81.411 64.6154 80.6973C64.6154 79.9836 64.762 79.3481 65.0553 78.7909C65.3584 78.2336 65.7642 77.7936 66.2725 77.471C66.7907 77.1484 67.3773 76.987 68.0324 76.987C68.5114 76.987 68.9416 77.0799 69.3229 77.2657C69.714 77.4514 70.0317 77.7105 70.2762 78.0429C70.5206 78.3656 70.6574 78.7371 70.6868 79.1575V82.2372C70.6574 82.6576 70.5206 83.034 70.2762 83.3664C70.0415 83.689 69.7286 83.9432 69.3376 84.129C68.9465 84.3148 68.5114 84.4076 68.0324 84.4076ZM68.487 82.3838C68.9661 82.3838 69.3522 82.2274 69.6455 81.9146C69.9389 81.5919 70.0855 81.1862 70.0855 80.6973C70.0855 80.3649 70.0171 80.0716 69.8802 79.8174C69.7531 79.5632 69.5673 79.3677 69.3229 79.2308C69.0883 79.0842 68.8145 79.0108 68.5017 79.0108C68.1888 79.0108 67.9102 79.0842 67.6657 79.2308C67.4311 79.3677 67.2405 79.5632 67.0938 79.8174C66.9569 80.0716 66.8885 80.3649 66.8885 80.6973C66.8885 81.02 66.9569 81.3084 67.0938 81.5626C67.2307 81.8168 67.4213 82.0172 67.6657 82.1639C67.9102 82.3105 68.1839 82.3838 68.487 82.3838ZM69.9975 84.261V82.3398L70.3348 80.6093L69.9975 78.8789V77.1337H72.1973V84.261H69.9975ZM78.4847 84.261V80.1987C78.4847 79.8272 78.3673 79.529 78.1327 79.3041C77.9078 79.0695 77.6194 78.9522 77.2674 78.9522C77.023 78.9522 76.8079 79.006 76.6222 79.1135C76.4364 79.2113 76.2898 79.3579 76.1822 79.5535C76.0747 79.7392 76.0209 79.9543 76.0209 80.1987L75.1557 79.7734C75.1557 79.2162 75.2779 78.7273 75.5223 78.3069C75.7667 77.8865 76.104 77.5639 76.5342 77.339C76.9741 77.1044 77.4679 76.987 78.0154 76.987C78.5433 76.987 79.0077 77.1141 79.4086 77.3683C79.8192 77.6128 80.1418 77.9403 80.3765 78.3509C80.6111 78.7615 80.7284 79.2113 80.7284 79.7001V84.261H78.4847ZM73.7771 84.261V77.1337H76.0209V84.261H73.7771ZM85.2052 84.4076C84.5306 84.4076 83.9294 84.2463 83.4014 83.9237C82.8832 83.6011 82.4726 83.1611 82.1695 82.6038C81.8762 82.0465 81.7296 81.411 81.7296 80.6973C81.7296 79.9836 81.8762 79.3481 82.1695 78.7909C82.4726 78.2336 82.8832 77.7936 83.4014 77.471C83.9294 77.1484 84.5306 76.987 85.2052 76.987C85.6941 76.987 86.134 77.0799 86.5251 77.2657C86.9259 77.4514 87.2535 77.7105 87.5077 78.0429C87.7716 78.3656 87.9183 78.7371 87.9476 79.1575V82.1639C87.9183 82.5843 87.7765 82.9656 87.5223 83.3077C87.2681 83.6402 86.9406 83.909 86.5398 84.1143C86.1389 84.3099 85.6941 84.4076 85.2052 84.4076ZM85.6012 82.3838C85.9238 82.3838 86.2025 82.3154 86.4371 82.1785C86.6717 82.0319 86.8575 81.8314 86.9944 81.5773C87.1313 81.3231 87.1997 81.0298 87.1997 80.6973C87.1997 80.3649 87.1313 80.0765 86.9944 79.8321C86.8673 79.5779 86.6815 79.3775 86.4371 79.2308C86.2025 79.0842 85.9287 79.0108 85.6159 79.0108C85.303 79.0108 85.0244 79.0842 84.7799 79.2308C84.5453 79.3775 84.3546 79.5779 84.208 79.8321C84.0711 80.0863 84.0027 80.3747 84.0027 80.6973C84.0027 81.02 84.0711 81.3084 84.208 81.5626C84.3449 81.8168 84.5355 82.0172 84.7799 82.1639C85.0244 82.3105 85.2981 82.3838 85.6012 82.3838ZM89.3115 84.261H87.1117V82.3398L87.449 80.6093L87.0677 78.8789V73.614H89.3115V84.261Z" fill="#626780"/>
</g>
<defs>
<clipPath id="clip0_94_935">
<rect width="120" height="120" fill="white" transform="translate(0 0.261719)"/>
</clipPath>
</defs>
</svg>
